<?xml version="1.0" standalone="no"?>
<!DOCTYPE svg PUBLIC "-//W3C//DTD SVG 20010904//EN"
 "http://www.w3.org/TR/2001/REC-SVG-20010904/DTD/svg10.dtd">
<svg version="1.0" xmlns="http://www.w3.org/2000/svg"
 width="132.000000pt" height="43.000000pt" viewBox="0 0 132.000000 43.000000"
 preserveAspectRatio="xMidYMid meet">

<g transform="translate(0.000000,43.000000) scale(0.100000,-0.100000)"
fill="#000000" stroke="none">
<path d="M101 352 c-19 -9 -43 -29 -54 -43 -20 -28 -36 -119 -21 -119 20 1 40
27 52 66 6 22 21 49 31 58 25 23 92 32 120 16 17 -9 26 -9 37 1 43 35 -101 54
-165 21z"/>
<path d="M335 358 c-4 -13 -35 -226 -35 -241 0 -4 10 -7 23 -7 22 0 24 7 40
118 21 145 21 142 -3 142 -11 0 -22 -6 -25 -12z"/>
<path d="M457 363 c-12 -12 -7 -31 10 -37 19 -8 48 17 39 33 -8 12 -39 15 -49
4z"/>
<path d="M564 240 l-20 -130 22 0 c23 0 34 17 34 56 0 37 26 29 55 -16 20 -32
31 -40 56 -40 27 0 29 2 16 15 -8 8 -25 31 -38 51 l-23 37 37 32 c20 18 37 35
37 39 0 16 -36 3 -74 -29 -24 -19 -46 -35 -51 -35 -7 0 -2 58 11 123 5 23 2
27 -18 27 -24 0 -25 -5 -44 -130z"/>
<path d="M795 358 c-4 -14 -35 -222 -35 -238 0 -6 11 -10 24 -10 22 0 25 6 33
53 l8 52 52 3 c33 2 53 8 57 17 4 12 -6 15 -50 15 -54 0 -56 1 -50 23 3 12 6
30 6 40 0 14 10 17 65 17 58 0 65 2 65 20 0 18 -7 20 -85 20 -60 0 -87 -4 -90
-12z"/>
<path d="M1116 238 c-3 -29 -9 -70 -12 -90 -6 -35 -5 -38 18 -38 23 0 26 5 31
52 7 59 37 98 75 98 24 0 24 0 17 -75 -6 -70 -6 -75 13 -75 24 0 29 11 38 89
5 43 3 65 -6 76 -16 19 -70 19 -96 0 -25 -19 -34 -19 -34 0 0 8 -8 15 -19 15
-15 0 -19 -10 -25 -52z"/>
<path d="M437 227 c-4 -29 -10 -67 -13 -85 -6 -29 -4 -32 19 -32 23 0 25 5 36
75 14 98 15 95 -13 95 -21 0 -24 -6 -29 -53z"/>
<path d="M1000 208 c-6 -40 -13 -79 -15 -85 -3 -8 5 -13 20 -13 14 0 25 1 26
3 10 49 24 159 21 162 -3 3 -13 5 -23 5 -14 0 -20 -15 -29 -72z"/>
<path d="M210 160 c-8 -5 -31 -10 -51 -10 -19 0 -44 -6 -54 -14 -18 -13 -18
-14 4 -21 45 -14 151 21 136 45 -8 12 -16 12 -35 0z"/>
</g>
</svg>
